# xmcd
#
# Track frame offsets: 
#        150
#        12008
#        26866
#        41227
#        58237
#        68769
#        80467
#        94565
#        107039
#        124691
#        137356
#
# Disc length: 2008 seconds
#
# Revision: 0
# Processed by: cddbd v1.5.2PL0 Copyright (c) Steve Scherf et al.
# Submitted via: ExactAudioCopy v0.95b4
#
DISCID=8c07d60b
DTITLE=Stonewall Jackson - Big Hits Collection
DYEAR=2004
DGENRE=Country
TTITLE0=Waterloo
TTITLE1=BJ The DJ
TTITLE2=A Wound Time Can't Erase
TTITLE3=I Washed My Hands In Muddy Water
TTITLE4=Why I'm Walkin'
TTITLE5=Full Moon, Empty Pockets
TTITLE6=Don't Be Angry
TTITLE7=There's No Shortcuts (To Get Me Over You)
TTITLE8=Breaking Up Break Down
TTITLE9=I'm Just An Old Chunk Of Coal (But I'm Gonna Be A Diamond Some
TTITLE9=day)
TTITLE10=Let The Sun Shine On The People
EXTD=
EXTT0=
EXTT1=
EXTT2=
EXTT3=
EXTT4=
EXTT5=
EXTT6=
EXTT7=
EXTT8=
EXTT9=
EXTT10=
PLAYORDER=
